<?xml version="1.0" encoding="iso-8859-1"?>
<!-- Generator: Adobe Illustrator 19.0.0, SVG Export Plug-In . SVG Version: 6.00 Build 0)  -->
<svg version="1.1" id="Capa_1" xmlns="http://www.w3.org/2000/svg" xmlns:xlink="http://www.w3.org/1999/xlink" x="0px" y="0px"
	 viewBox="0 0 512 512" style="enable-background:new 0 0 512 512;" xml:space="preserve">
<path style="fill:#B9D8F4;" d="M331.489,467.951c-17.148,0-17.148-17.148-17.148-17.148v-35.37H207.159v35.37
	c0,0,0,17.148-17.148,17.148c-10.022,0-18.221,8.199-18.221,18.221l0,0c0,10.022,8.199,18.221,18.221,18.221h141.48
	c10.022,0,18.221-8.199,18.221-18.221l0,0C349.71,476.15,341.511,467.951,331.489,467.951z"/>
<path style="fill:#96C8EF;" d="M235.304,504.392c-10.021-0.001-18.219-8.2-18.219-18.221c0-10.021,8.199-18.221,18.221-18.221
	c6.181,0,10.126-2.232,12.655-5.081l0,0c0.579-0.652,4.167-7.631,12.789-7.631c0,0,52.325-0.093,54.17-0.231
	c-0.576-2.417-0.579-4.205-0.579-4.205v-35.37H207.159v35.37c0,0,0,17.15-17.148,17.15c-10.022,0-18.221,8.199-18.221,18.221
	c0,10.022,8.199,18.221,18.221,18.221h45.294V504.392z"/>
<path style="fill:#D1E7F8;" d="M356.141,121.398H165.358c-24.17,0-43.944,19.775-43.944,43.944v32.616
	c0,14.676,18.529,35.779,18.576,35.812c0,0,6.434,6.955,6.434,20.514v32.616c0,13.391,6.077,25.426,15.602,33.503
	c6.282,4.459,6.193,27.843,6.193,27.843v32.616c0,24.17,19.775,43.944,43.944,43.944h97.177c24.17,0,43.944-19.775,43.944-43.944
	v-32.616c0-0.001-0.089-23.384,6.193-27.843c9.525-8.077,15.602-20.111,15.602-33.503v-32.616c0-13.559,6.433-20.514,6.433-20.514
	c0.046-0.032,18.576-21.136,18.576-35.812v-32.616C400.085,141.173,380.31,121.398,356.141,121.398z"/>
<path style="fill:#B9D8F4;" d="M239.412,380.863v-32.617c0-0.001,0.089-23.384-6.193-27.843
	c-9.525-8.077-15.602-20.111-15.602-33.503v-32.617c0-13.559-6.434-20.514-6.434-20.514c-0.046-0.032-18.576-21.136-18.576-35.812
	v-32.616c0-24.17,19.775-43.944,43.944-43.944h-71.196c-24.17,0-43.944,19.775-43.944,43.944v32.616
	c0,14.676,18.529,35.779,18.576,35.812c0,0,6.434,6.955,6.434,20.514V286.9c0,13.39,6.077,25.426,15.602,33.503
	c6.282,4.459,6.193,27.842,6.193,27.843v32.617c0,24.17,19.775,43.944,43.944,43.944h71.196
	C259.187,424.808,239.412,405.033,239.412,380.863z"/>
<path style="fill:#FFDE55;" d="M114.792,80.058l60.952-69.252c3.026-3.437,7.977-4.421,12.086-2.403l83.259,40.889
	c3.903,1.917,6.15,6.109,5.586,10.42c-0.564,4.312-3.814,7.785-8.079,8.633l-144.544,28.74c-0.009,0.002-0.014,0.003-0.019,0.004
	c-5.495,1.092-10.834-2.476-11.927-7.971C111.429,85.715,112.541,82.37,114.792,80.058z"/>
<polygon style="fill:#FFD422;" points="236.863,74.655 181.371,7.561 155.767,90.78 "/>
<path style="fill:#FF0C38;" d="M356.304,182.977H165.195c-7.373,0-13.35,5.978-13.35,13.35v11.252
	c0,14.262,8.305,18.326,12.814,23.532c0.041,0.048,0.082,0.094,0.125,0.142c2.112,2.371,9.005,11.315,9.005,26.856v28.618
	c0,13.138,8.629,18.905,9.015,19.199c6.573,4.994,10.163,17.292,10.106,34.671v28.574c0,13.9,11.308,25.207,25.207,25.207h85.265
	c13.9,0,25.207-11.308,25.207-25.207v-28.574c-0.057-17.38,3.533-29.678,10.106-34.671c0.386-0.294,9.015-6.062,9.015-19.199
	v-28.618c0-15.54,6.893-24.484,9.005-26.856c0.043-0.047,0.083-0.094,0.125-0.142c4.508-5.207,12.814-9.27,12.814-23.532v-11.252
	C369.655,188.954,363.677,182.977,356.304,182.977z"/>
<path style="fill:#D80027;" d="M165.195,182.977c-7.373,0-13.35,5.978-13.35,13.35v11.252c0,14.262,8.305,18.326,12.814,23.532
	c0.041,0.048,0.082,0.094,0.125,0.142c2.112,2.372,9.005,11.315,9.005,26.856v28.619c0,13.138,8.629,18.905,9.015,19.199
	c6.573,4.994,10.163,17.292,10.107,34.67v28.574c0,13.9,11.309,25.207,25.207,25.207h23.443c-1.389-4.263-2.148-8.803-2.148-13.514
	v-32.617c0-0.001,0.089-23.384-6.192-27.843c-9.525-8.077-15.602-20.111-15.602-33.503v-32.617c0-13.559-6.434-20.514-6.434-20.514
	c-0.046-0.032-18.576-21.136-18.576-35.812v-14.982L165.195,182.977L165.195,182.977z"/>
<path style="fill:#FF5023;" d="M356.305,182.977h-191.11c-7.373,0-13.35,5.978-13.35,13.35v11.252
	c0,14.262,8.305,18.326,12.814,23.532c0.041,0.048,0.082,0.095,0.125,0.142c2.112,2.372,9.005,11.315,9.005,26.856v4.206h173.923
	v-4.207c0-15.54,6.893-24.484,9.005-26.856c0.043-0.047,0.083-0.094,0.125-0.142c4.509-5.207,12.814-9.27,12.814-23.532v-11.252
	C369.655,188.954,363.677,182.977,356.305,182.977z"/>
<path style="fill:#FF3501;" d="M165.195,182.977c-7.373,0-13.35,5.978-13.35,13.35v11.252c0,14.262,8.305,18.326,12.814,23.532
	c0.041,0.048,0.082,0.095,0.125,0.142c2.112,2.372,9.005,11.315,9.005,26.856v4.206h43.831v-8.03
	c0-13.559-6.434-20.514-6.434-20.514c-0.046-0.032-18.576-21.136-18.576-35.812v-14.982L165.195,182.977L165.195,182.977z"/>
<path style="fill:#D80027;" d="M192.609,332.087c0.204,2.682,0.309,5.514,0.3,8.509v28.574c0,13.9,11.309,25.207,25.207,25.207
	h85.265c13.9,0,25.207-11.308,25.207-25.207v-28.574c-0.01-2.995,0.096-5.827,0.3-8.509H192.609z"/>
<g>
	<path style="fill:#C70024;" d="M192.91,340.597v28.574c0,13.9,11.309,25.207,25.207,25.207h23.444
		c-1.389-4.263-2.148-8.803-2.148-13.514v-32.617c0,0,0.03-8.449-1.309-16.16H192.61C192.813,334.769,192.92,337.601,192.91,340.597
		z"/>
	<path style="fill:#C70024;" d="M303.696,303.441c-3.64-2.098-5-6.669-2.962-10.343c3.105-5.594,6.953-10.49,11.444-14.552
		c3.113-2.82,7.925-2.579,10.745,0.538c2.819,3.115,2.578,7.926-0.538,10.745c-3.247,2.938-6.056,6.521-8.346,10.651
		C312.65,302.985,309.776,306.945,303.696,303.441z"/>
	<path style="fill:#C70024;" d="M298.16,371.556c-4.202,0-7.608-3.405-7.608-7.608v-23.253c-0.026-8.244,0.587-15.984,1.828-22.981
		c0.732-4.136,4.686-6.903,8.818-6.163c4.136,0.733,6.897,4.68,6.163,8.818c-1.081,6.106-1.618,12.937-1.594,20.302v23.277
		C305.767,368.149,302.361,371.556,298.16,371.556z"/>
</g>
<path style="fill:#FFFFFF;" d="M284.975,229.356l-32.75-32.749c-7.495-7.495-7.495-19.759-0.001-27.255l32.751-32.753
	c7.495-7.496,19.76-7.496,27.255-0.001l32.749,32.749c7.495,7.495,7.495,19.759,0.001,27.255l-32.751,32.753
	C304.736,236.851,292.471,236.851,284.975,229.356z"/>
<path style="fill:#FF9478;" d="M246.605,182.977c-0.001,4.941,1.873,9.882,5.621,13.63l32.75,32.749
	c7.496,7.495,19.76,7.495,27.255-0.001l32.751-32.753c3.747-3.747,5.62-8.686,5.62-13.626H246.605V182.977z"/>
<path style="fill:#FFFFFF;" d="M227.665,232.457l-32.75-32.749c-7.495-7.495-7.495-19.759-0.001-27.255l32.751-32.753
	c7.495-7.496,19.76-7.496,27.255-0.001l32.75,32.749c7.495,7.495,7.495,19.759,0.001,27.255l-32.751,32.753
	C247.425,239.952,235.161,239.953,227.665,232.457z"/>
<path style="fill:#FFBCAB;" d="M194.915,199.709l32.75,32.749c7.495,7.495,19.76,7.495,27.255-0.001l32.751-32.753
	c4.534-4.535,6.306-10.813,5.354-16.727H189.561C188.608,188.892,190.38,195.172,194.915,199.709z"/>
<path d="M407.693,165.343c0-28.426-23.126-51.552-51.552-51.552H210.25l-4.99-25.095l64.819-12.887
	c7.47-1.485,13.153-7.557,14.139-15.106c0.991-7.552-2.938-14.881-9.774-18.239l-83.259-40.89c-2.422-1.189-13.23-4.383-21.15,4.205
	l-60.843,69.129c-3.972,4.181-5.675,10.032-4.545,15.695c3.573,17.911,19.728,14.175,20.872,13.948l64.82-12.888l4.4,22.128H165.36
	c-28.426,0-51.552,23.126-51.552,51.552v32.616c0,15.935,16.181,36.015,20.671,40.911l-0.073,0.067l-0.088-0.097
	c0.185,0.213,4.5,5.348,4.5,15.445V286.9c0,15.122,6.665,29.448,18.289,39.305c0.079,0.067,0.159,0.134,0.241,0.197
	c1.744,2.384,3.289,12.66,3.263,21.844v32.616c0,24.077,16.593,44.346,38.943,49.987v19.952c0,0.024-0.1,2.691-1.34,5.172
	c-1.017,2.035-2.869,4.37-8.201,4.37c-14.241,0-25.828,11.587-25.828,25.828S175.771,512,190.013,512h141.48
	c14.241,0,25.828-11.587,25.828-25.828s-11.587-25.828-25.828-25.828c-5.169,0-7.012-2.171-8.041-4.061
	c-1.41-2.592-1.499-5.481-1.5-5.481v-19.953c22.619-5.682,38.943-26.081,38.943-49.985v-32.642
	c-0.025-9.16,1.519-19.436,3.263-21.82c0.082-0.064,0.162-0.13,0.241-0.197c11.623-9.856,18.289-24.183,18.289-39.305v-32.616
	c0-10.097,4.315-15.232,4.5-15.445l-0.088,0.097l-0.073-0.067c4.49-4.895,20.671-24.975,20.671-40.91v-32.616H407.693z
	 M269.131,58.727c-0.142,1.078-0.952,1.944-2.02,2.156l-27.281,5.424l-33.277-40.234l61.181,30.047
	C268.712,56.6,269.273,57.646,269.131,58.727z M122.569,89.623c-0.005,0.003-2.559,0.506-3-1.987
	c-0.21-1.188,0.85-2.456,0.934-2.552l44.676-50.759l-9.212,29.942c-1.236,4.016,1.018,8.272,5.034,9.507
	c0.745,0.23,7.444,1.519,9.507-5.034l13.988-45.466l38.38,46.404L122.569,89.623z M350.361,201.982
	c3.27-3.27,5.52-7.182,6.749-11.333c2.784,0.394,4.936,2.787,4.936,5.679v11.252c0,8.01-3.189,11.004-7.226,14.792
	c-1.248,1.172-14.717,9.513-14.717,35.736v28.618c0,8.386-4.823,12.284-5.791,12.981c-0.052,0.038-13.332,9.775-13.332,40.89v28.574
	c0,9.704-7.896,17.601-17.601,17.601h-85.265c-9.704,0-17.601-7.896-17.601-17.601v-28.55c0-31.393-13.28-40.877-13.332-40.915
	c-0.968-0.697-5.791-4.595-5.791-12.981v-28.618c0-18.234-8.369-29.04-10.985-31.976c-1.193-1.377-2.483-2.589-3.732-3.76
	c-4.037-3.789-7.226-6.782-7.226-14.792v-11.252c0-3.166,2.576-5.742,5.742-5.742h16.865c0.897,5.314,3.383,10.41,7.476,14.503
	l32.75,32.749c5.24,5.24,12.122,7.859,19.006,7.859s13.769-2.62,19.009-7.861l11.197-11.198l8.098,8.099
	c5.241,5.24,12.123,7.86,19.007,7.86c6.883-0.001,13.768-2.621,19.009-7.862L350.361,201.982z M339.602,191.223l-32.75,32.752
	c-4.547,4.549-11.949,4.549-16.497,0.002l-8.099-8.099l10.795-10.796c7.721-7.722,9.987-19.666,5.638-29.722
	c-1.668-3.856-6.144-5.628-10.002-3.962c-3.857,1.669-5.631,6.147-3.962,10.002c1.895,4.38,0.917,9.573-2.431,12.923l-32.75,32.752
	c-4.548,4.549-11.95,4.55-16.497,0.001l-32.749-32.749c-4.548-4.547-4.548-11.948-0.001-16.497l32.751-32.752
	c2.188-2.188,5.117-3.394,8.249-3.394c3.13,0,6.06,1.205,8.249,3.394l22.466,22.465c2.97,2.97,7.787,2.971,10.758-0.001
	c2.971-2.971,2.971-7.788-0.001-10.758l-3.608-3.608l11.198-11.198c4.548-4.55,11.949-4.549,16.496-0.001l32.75,32.749
	C344.15,179.275,344.15,186.674,339.602,191.223z M268.399,142.417l-8.099-8.099c-2.227-2.226-4.781-4.012-7.554-5.314h29.369
	C281.243,129.684,268.399,142.417,268.399,142.417z M229.841,129.005c-2.774,1.303-5.328,3.089-7.555,5.315l-6.635,6.635
	l-2.377-11.95C213.275,129.005,229.841,129.005,229.841,129.005z M392.478,197.959c0,9.03-11.165,24.556-16.599,30.697
	c-1.059,1.162-8.41,9.813-8.41,25.629v32.616c0,10.571-4.642,20.602-12.745,27.558c-7.946,6.118-9.084,23.753-9.048,33.789v32.616
	c0,18.49-13.855,34.011-32.227,36.105c-4.086,0.466-7.035,4.087-6.715,8.152v25.681c0,9.952,6.593,24.756,24.756,24.756
	c5.853,0,10.613,4.76,10.613,10.613s-4.76,10.613-10.613,10.613H190.01c-5.853,0-10.613-4.76-10.613-10.613
	s4.76-10.613,10.613-10.613c18.163,0,24.756-14.805,24.756-24.756v-18.386h74.047c4.202,0,7.608-3.405,7.608-7.608
	c0-4.202-3.405-7.608-7.608-7.608h-76.652c-20.036,0-36.337-16.301-36.337-36.337v-32.59c0.037-10.063-1.102-27.699-9.048-33.816
	c-8.104-6.955-12.745-16.986-12.745-27.558v-32.616c0-15.817-7.351-24.466-8.41-25.629c-5.434-6.141-16.599-21.666-16.599-30.697
	v-32.616c0-20.036,16.3-36.337,36.337-36.337h32.403l4.949,24.892l-13.176,13.177c-2.459,2.459-4.333,5.283-5.638,8.296h-18.702
	c-11.556,0-20.957,9.402-20.957,20.957v11.252c0,14.598,7.239,21.391,12.029,25.887c1.01,0.948,9.913,5.772,9.913,24.642v28.618
	c0,15.299,9.145,23.172,12.071,25.296c3.454,2.681,7.106,11.57,7.051,28.574v28.574c0,18.095,14.721,32.816,32.816,32.816h85.265
	c18.095,0,32.816-14.721,32.816-32.816v-28.598c-0.056-16.975,3.595-25.865,7.048-28.548c2.888-2.092,12.074-9.964,12.074-25.298
	v-28.618c0-16.081,8.903-23.694,9.913-24.642c4.791-4.496,12.029-11.289,12.029-25.887v-11.252c0-11.273-8.955-20.471-20.121-20.915
	c-1.222-4.193-3.481-8.145-6.781-11.445c0,0-34.394-34.283-35.267-34.962h41.047c20.036,0,36.337,16.3,36.337,36.337
	L392.478,197.959L392.478,197.959z"/>
<g>
</g>
<g>
</g>
<g>
</g>
<g>
</g>
<g>
</g>
<g>
</g>
<g>
</g>
<g>
</g>
<g>
</g>
<g>
</g>
<g>
</g>
<g>
</g>
<g>
</g>
<g>
</g>
<g>
</g>
</svg>
